ffmpeg version 6.1.1-3ubuntu5 Copyright (c) 2000-2023 the FFmpeg developers
  built with gcc 13 (Ubuntu 13.2.0-23ubuntu3)
  configuration: --prefix=/usr --extra-version=3ubuntu5 --toolchain=hardened --libdir=/usr/lib/x86_64-linux-gnu --incdir=/usr/include/x86_64-linux-gnu --arch=amd64 --enable-gpl --disable-stripping --disable-omx --enable-gnutls --enable-libaom --enable-libass --enable-libbs2b --enable-libcaca --enable-libcdio --enable-libcodec2 --enable-libdav1d --enable-libflite --enable-libfontconfig --enable-libfreetype --enable-libfribidi --enable-libglslang --enable-libgme --enable-libgsm --enable-libharfbuzz --enable-libmp3lame --enable-libmysofa --enable-libopenjpeg --enable-libopenmpt --enable-libopus --enable-librubberband --enable-libshine --enable-libsnappy --enable-libsoxr --enable-libspeex --enable-libtheora --enable-libtwolame --enable-libvidstab --enable-libvorbis --enable-libvpx --enable-libwebp --enable-libx265 --enable-libxml2 --enable-libxvid --enable-libzimg --enable-openal --enable-opencl --enable-opengl --disable-sndio --enable-libvpl --disable-libmfx --enable-libdc1394 --enable-libdrm --enable-libiec61883 --enable-chromaprint --enable-frei0r --enable-ladspa --enable-libbluray --enable-libjack --enable-libpulse --enable-librabbitmq --enable-librist --enable-libsrt --enable-libssh --enable-libsvtav1 --enable-libx264 --enable-libzmq --enable-libzvbi --enable-lv2 --enable-sdl2 --enable-libplacebo --enable-librav1e --enable-pocketsphinx --enable-librsvg --enable-libjxl --enable-shared
  libavutil      58. 29.100 / 58. 29.100
  libavcodec     60. 31.102 / 60. 31.102
  libavformat    60. 16.100 / 60. 16.100
  libavdevice    60.  3.100 / 60.  3.100
  libavfilter     9. 12.100 /  9. 12.100
  libswscale      7.  5.100 /  7.  5.100
  libswresample   4. 12.100 /  4. 12.100
  libpostproc    57.  3.100 / 57.  3.100
Input #0, image2, from '/tmp/jl_gRddtb/proc1_%04d.png':
  Duration: 00:00:04.52, start: 0.000000, bitrate: N/A
  Stream #0:0: Video: png, rgb24(pc, gbr/bt709/iec61966-2-1), 1200x600 [SAR 3780:3780 DAR 2:1], 25 fps, 25 tbr, 25 tbn
Stream mapping:
  Stream #0:0 -> #0:0 (png (native) -> h264 (libx264))
Press [q] to stop, [?] for help
[libx264 @ 0x55d1891fdb00] using SAR=1/1
[libx264 @ 0x55d1891fdb00] using cpu capabilities: MMX2 SSE2Fast SSSE3 SSE4.2 AVX FMA3 BMI2 AVX2
[libx264 @ 0x55d1891fdb00] profile High, level 3.1, 4:2:0, 8-bit
[libx264 @ 0x55d1891fdb00] 264 - core 164 r3108 31e19f9 - H.264/MPEG-4 AVC codec - Copyleft 2003-2023 - http://www.videolan.org/x264.html - options: cabac=1 ref=3 deblock=1:0:0 analyse=0x3:0x113 me=hex subme=7 psy=1 psy_rd=1.00:0.00 mixed_ref=1 me_range=16 chroma_me=1 trellis=1 8x8dct=1 cqm=0 deadzone=21,11 fast_pskip=1 chroma_qp_offset=-2 threads=6 lookahead_threads=1 sliced_threads=0 nr=0 decimate=1 interlaced=0 bluray_compat=0 constrained_intra=0 bframes=3 b_pyramid=2 b_adapt=1 b_bias=0 direct=1 weightb=1 open_gop=0 weightp=2 keyint=250 keyint_min=25 scenecut=40 intra_refresh=0 rc_lookahead=40 rc=crf mbtree=1 crf=23.0 qcomp=0.60 qpmin=0 qpmax=69 qpstep=4 ip_ratio=1.40 aq=1:1.00
Output #0, mp4, to 'vorticity_proc1.mp4':
  Metadata:
    encoder         : Lavf60.16.100
  Stream #0:0: Video: h264 (avc1 / 0x31637661), yuv420p(tv, unknown/bt709/iec61966-2-1, progressive), 1200x600 [SAR 1:1 DAR 2:1], q=2-31, 25 fps, 12800 tbn
    Metadata:
      encoder         : Lavc60.31.102 libx264
    Side data:
      cpb: bitrate max/min/avg: 0/0/0 buffer size: 0 vbv_delay: N/A
frame=    0 fps=0.0 q=0.0 size=       0kB time=N/A bitrate=N/A speed=N/A    frame=   15 fps=0.0 q=28.0 size=       0kB time=00:00:00.48 bitrate=   0.8kbits/s speed=0.909x    frame=   53 fps= 51 q=28.0 size=       0kB time=00:00:02.00 bitrate=   0.2kbits/s speed=1.93x    frame=   89 fps= 58 q=28.0 size=     256kB time=00:00:03.48 bitrate= 602.7kbits/s speed=2.26x    frame=  124 fps= 61 q=28.0 size=     256kB time=00:00:04.88 bitrate= 429.8kbits/s speed=2.38x    frame=  159 fps= 62 q=28.0 size=     256kB time=00:00:06.28 bitrate= 334.0kbits/s speed=2.46x    frame=  198 fps= 64 q=28.0 size=     512kB time=00:00:07.84 bitrate= 535.0kbits/s speed=2.55x    [out#0/mp4 @ 0x55d1891fd100] video:780kB audio:0kB subtitle:0kB other streams:0kB global headers:0kB muxing overhead: 0.532823%
frame=  283 fps= 72 q=-1.0 Lsize=     784kB time=00:00:11.20 bitrate= 573.6kbits/s speed=2.85x    
[libx264 @ 0x55d1891fdb00] frame I:2     Avg QP:17.69  size: 36940
[libx264 @ 0x55d1891fdb00] frame P:74    Avg QP:24.74  size:  7708
[libx264 @ 0x55d1891fdb00] frame B:207   Avg QP:19.40  size:   743
[libx264 @ 0x55d1891fdb00] consecutive B-frames:  1.1%  3.5%  2.1% 93.3%
[libx264 @ 0x55d1891fdb00] mb I  I16..4: 29.5% 44.8% 25.7%
[libx264 @ 0x55d1891fdb00] mb P  I16..4:  0.3%  1.5%  0.9%  P16..4:  5.6%  6.9%  4.4%  0.0%  0.0%    skip:80.4%
[libx264 @ 0x55d1891fdb00] mb B  I16..4:  0.1%  0.1%  0.0%  B16..8:  6.6%  1.0%  0.4%  direct: 0.3%  skip:91.5%  L0:44.0% L1:47.4% BI: 8.7%
[libx264 @ 0x55d1891fdb00] 8x8 transform intra:48.7% inter:41.5%
[libx264 @ 0x55d1891fdb00] coded y,uvDC,uvAC intra: 39.0% 42.7% 35.1% inter: 2.6% 2.3% 0.7%
[libx264 @ 0x55d1891fdb00] i16 v,h,dc,p: 58% 28% 11%  3%
[libx264 @ 0x55d1891fdb00] i8 v,h,dc,ddl,ddr,vr,hd,vl,hu: 24% 12% 34%  5%  5%  4%  6%  4%  6%
[libx264 @ 0x55d1891fdb00] i4 v,h,dc,ddl,ddr,vr,hd,vl,hu: 28% 18% 17%  5%  7%  5%  9%  4%  7%
[libx264 @ 0x55d1891fdb00] i8c dc,h,v,p: 69% 14% 12%  5%
[libx264 @ 0x55d1891fdb00] Weighted P-Frames: Y:0.0% UV:0.0%
[libx264 @ 0x55d1891fdb00] ref P L0: 70.3% 14.9% 10.3%  4.6%
[libx264 @ 0x55d1891fdb00] ref B L0: 87.3% 10.3%  2.4%
[libx264 @ 0x55d1891fdb00] ref B L1: 98.2%  1.8%
[libx264 @ 0x55d1891fdb00] kb/s:564.01
